# xmcd
#
# Track frame offsets:
#	150
#	24508
#	47491
#	59461
#	78608
#	100911
#	126970
#	143188
#	170038
#	183934
#	201776
#
# Disc length: 2973 seconds
#
# Revision: 0
# Processed by: cddbd v1.5.2PL0 Copyright (c) Steve Scherf et al.
# Submitted via: dBpowerAMP V4.0
#
DISCID=990b9b0b
DTITLE=Rory Gallagher - Deuce
DYEAR=1971
DGENRE=Blues
TTITLE0=I'm Not Awake Yet
TTITLE1=Used to Be
TTITLE2=Don't Know Where I'm Going
TTITLE3=Maybe I Will
TTITLE4=Whole Lot of People
TTITLE5=In Your Town
TTITLE6=Should've Learnt My Lesson
TTITLE7=There's A Light
TTITLE8=Out Of My Mind
TTITLE9=Crest Of A Wave
TTITLE10=Persuasion
EXTD=
EXTT0=
EXTT1=
EXTT2=
EXTT3=
EXTT4=
EXTT5=
EXTT6=
EXTT7=
EXTT8=
EXTT9=
EXTT10=
PLAYORDER=
